# xmcd CD database file
#
# Track frame offsets:
#	150
#	22415
#	44338
#	64996
#	83545
#	104192
#	124457
#	141365
#	164590
#	185845
#	203858
#	222044
#
# Disc length: 3226 seconds
#
# Revision: 1
# Processed by: cddbd v1.5.2PL0 Copyright (c) Steve Scherf et al.
# Submitted via: CDex 1.70beta2
#
DISCID=c40c980c
DTITLE=Paul Taylor - Ladies Choice (Circuit City Version)
DYEAR=2007
DGENRE=Jazz
TTITLE0=Ladies Choice
TTITLE1=I Want To Be Loved (By You) F/ Latoya London
TTITLE2=Here We Go
TTITLE3=How Did You Know F/ Regina Belle
TTITLE4=Streamline
TTITLE5=Long Distance Relationship F/ Terry Dexter
TTITLE6=Summer's End
TTITLE7=A Love Of Your Own F/ Lauren Evans
TTITLE8=Open Your Eyes F/ Regina Belle
TTITLE9=Overdrive
TTITLE10=Point Of View
TTITLE11=Paradise Valley (Circuit City Exclusive Bonus Track)
EXTD=YEAR: 2007
EXTT0=
EXTT1=
EXTT2=
EXTT3=
EXTT4=
EXTT5=
EXTT6=
EXTT7=
EXTT8=
EXTT9=
EXTT10=
EXTT11=
PLAYORDER=
